<svg xmlns="http://www.w3.org/2000/svg" xmlns:xlink="http://www.w3.org/1999/xlink" viewBox="0,0,255.99258,255.99258" width="48px" height="48px"><g transform="translate(25.59926,25.59926) scale(0.8,0.8)"><g fill="#000000" fill-rule="nonzero" stroke="none" stroke-width="1" stroke-linecap="butt" stroke-linejoin="miter" stroke-miterlimit="10" stroke-dasharray="" stroke-dashoffset="0" font-family="none" font-weight="none" font-size="none" text-anchor="none" style="mix-blend-mode: normal"><path d="M-31.99907,287.99166v-319.99073h319.99073v319.99073z" id="bgRectangle"></path></g><g fill="none" fill-rule="nonzero" stroke="none" stroke-width="1" stroke-linecap="butt" stroke-linejoin="miter" stroke-miterlimit="10" stroke-dasharray="" stroke-dashoffset="0" font-family="none" font-weight="none" font-size="none" text-anchor="none" style="mix-blend-mode: normal"><g transform="scale(5.33333,5.33333)"><path d="M34,12l-6,-6h-8l-6,6h-3v28c0,2.2 1.8,4 4,4h18c2.2,0 4,-1.8 4,-4v-28z" fill="#ffffff"></path><path d="M24.5,39h-1c-0.8,0 -1.5,-0.7 -1.5,-1.5v-19c0,-0.8 0.7,-1.5 1.5,-1.5h1c0.8,0 1.5,0.7 1.5,1.5v19c0,0.8 -0.7,1.5 -1.5,1.5zM31.5,39v0c-0.8,0 -1.5,-0.7 -1.5,-1.5v-19c0,-0.8 0.7,-1.5 1.5,-1.5v0c0.8,0 1.5,0.7 1.5,1.5v19c0,0.8 -0.7,1.5 -1.5,1.5zM16.5,39v0c-0.8,0 -1.5,-0.7 -1.5,-1.5v-19c0,-0.8 0.7,-1.5 1.5,-1.5v0c0.8,0 1.5,0.7 1.5,1.5v19c0,0.8 -0.7,1.5 -1.5,1.5z" fill="#000000"></path><path d="M11,8h26c1.1,0 2,0.9 2,2v2h-30v-2c0,-1.1 0.9,-2 2,-2z" fill="#ffffff"></path></g></g></g></svg>